# xmcd
#
# Track frame offsets: 
#        150
#        20867
#        41580
#        63951
#        87345
#        106379
#        130539
#        160685
#        179689
#        199104
#
# Disc length: 2883 seconds
#
# Revision: 0
# Processed by: cddbd v1.5.1PL2 Copyright (c) Steve Scherf et al.
# Submitted via: ExactAudioCopy v0.95a5
#
DISCID=830b410a
DTITLE=Lil' Dave Thompson - Got To Get Over You
DYEAR=2006
DGENRE=Blues
TTITLE0=Got To Get Over You
TTITLE1=Out In The Cold
TTITLE2=I Got The Blues
TTITLE3=I Wonder
TTITLE4=Hard Headed Woman
TTITLE5=Player's Card
TTITLE6=Lil' Girl
TTITLE7=Make A Fool Of Me
TTITLE8=Need For Speed
TTITLE9=Something Come Over Me
EXTD=
EXTT0=
EXTT1=
EXTT2=
EXTT3=
EXTT4=
EXTT5=
EXTT6=
EXTT7=
EXTT8=
EXTT9=
PLAYORDER=
